<svg width="16" height="16" viewBox="0 0 16 16" fill="none" xmlns="http://www.w3.org/2000/svg">
<g clip-path="url(#clip0_415_366)">
<path d="M7 1C7 0.734784 6.89464 0.48043 6.70711 0.292893C6.51957 0.105357 6.26522 0 6 0L1 0C0.734784 0 0.48043 0.105357 0.292893 0.292893C0.105357 0.48043 0 0.734784 0 1L0 6C0 6.26522 0.105357 6.51957 0.292893 6.70711C0.48043 6.89464 0.734784 7 1 7C1.26522 7 1.51957 6.89464 1.70711 6.70711C1.89464 6.51957 2 6.26522 2 6V3.414L5.293 6.707C5.4816 6.88916 5.7342 6.98995 5.9964 6.98767C6.2586 6.9854 6.50941 6.88023 6.69482 6.69482C6.88023 6.50941 6.9854 6.2586 6.98767 5.9964C6.98995 5.7342 6.88916 5.4816 6.707 5.293L3.414 2H6C6.26522 2 6.51957 1.89464 6.70711 1.70711C6.89464 1.51957 7 1.26522 7 1Z" fill="#FFF9F9"/>
<path d="M15 9C14.7348 9 14.4804 9.10536 14.2929 9.29289C14.1054 9.48043 14 9.73478 14 10V12.586L10.707 9.293C10.5184 9.11084 10.2658 9.01005 10.0036 9.01233C9.7414 9.0146 9.49059 9.11977 9.30518 9.30518C9.11977 9.49059 9.0146 9.7414 9.01233 10.0036C9.01005 10.2658 9.11084 10.5184 9.293 10.707L12.586 14H10C9.73478 14 9.48043 14.1054 9.29289 14.2929C9.10536 14.4804 9 14.7348 9 15C9 15.2652 9.10536 15.5196 9.29289 15.7071C9.48043 15.8946 9.73478 16 10 16H15C15.2652 16 15.5196 15.8946 15.7071 15.7071C15.8946 15.5196 16 15.2652 16 15V10C16 9.73478 15.8946 9.48043 15.7071 9.29289C15.5196 9.10536 15.2652 9 15 9Z" fill="#FFF9F9"/>
</g>
<defs>
<clipPath id="clip0_415_366">
<rect width="16" height="16" fill="white"/>
</clipPath>
</defs>
</svg>
